<svg xmlns="http://www.w3.org/2000/svg" viewBox="0 0 591.43 222.27">
  <!-- Simplified version of the main logo for favicon -->
  <path d="M88.32,86.21L137.3,15.55c6.8-7.68,15.69-13.78,26.22-14.68,12.21-1.04,42.88-1.43,54.47.37,15.85,2.47,23.46,14.18,28.13,28.2,11.35,34.11,21.19,71.65,30.87,106.46,7.43,26.72,22.93,58.85-5.86,78.23-9.62,6.48-20.6,7.52-31.97,7.41-8.72-.08-10.38-10.69-3.5-12.78,7.01-2.13,14.66,1.2,23.71-2.52,24.83-10.2,13.71-36.04,8.52-55.08-10.3-37.81-21.34-81.93-34.3-118.46-3.39-9.54-7.84-17.55-19.12-18.69-12.1-1.22-38.01-1.16-50.18-.04-7.72.71-13.56,5.27-18.5,10.82l-62.87,90.66c8.69,7.95,20.8-2.91,30.47-2.76,16.38.26,23.63,16.9,39.72-1.12,5.77-6.46,18.03-22.48,22.73-29.73,3.52-5.41.41-6.58-5.37-6.9-11.27-.62-20.2,19.81-28.58,14.71-7.45-4.53,8.69-17.27,12.42-20.08,9.97-7.52,20.02-7.57,31.22-1.94,9.13,4.59,13.27,16.49,25.53,13.91,3.79-.8,11.74-7.79,14.21-1.96,2.59,6.13-3.48,9.7-8.33,11.69-9.81,4.03-16.89,2.42-25.15-3.67-1.13-.83-3.64-4.16-4.68-3.41.04,3.52-15.21,18.34-13.9,20.05,5.5,3.44,19.91,7.73,21.87,14.02.34,1.1.55,2.2.57,3.35.18,7.92-13.28,25.9-18.28,32.71-11.3,15.38-27,36.89-39.68,50.59-9.18,9.91-20.76,15.59-34.33,16.6-31.43,2.32-65.55-1.75-97.26.05-5.66.05-7.82-4.77-4.54-9.25l82.76-120.18M184,122.04l-17.37-9.2c-7.9,11-16.74,18.81-31.29,16.56-10.55-1.64-15.83-9.37-27.76-6.23-10.45,2.75-19.01,8.15-29.62.46l-59.11,85.57,87.58-.77c11.07-1.51,18.07-7,25.07-15.06,13.73-15.82,32.74-39.52,44.32-56.75,3.09-4.59,5.65-9.66,8.17-14.57Z"/>
  <path d="M575.82,43.52c23.33-4.29,18.52,30.36-1.33,22.56-10.81-4.24-9.16-20.63,1.33-22.56Z"/>
  <path d="M193.8,41.96c12.42-2.83,19.3,12.92,9.27,19.29-14.99,9.51-23.93-15.95-9.27-19.29Z"/>
</svg>